<svg width="36" height="37" viewBox="0 0 36 37" fill="none" xmlns="http://www.w3.org/2000/svg">
<path d="M0 18.3745C0.00101382 22.6608 1.53085 26.8063 4.31453 30.0657C7.09822 33.3252 10.9532 35.4849 15.1866 36.1567V23.5765H10.62V18.3745H15.192V14.4145C15.091 13.4876 15.1954 12.5499 15.4977 11.668C15.7999 10.786 16.2927 9.98142 16.941 9.31135C17.5892 8.64128 18.377 8.12216 19.2485 7.79087C20.12 7.45958 21.0537 7.32425 21.9834 7.39447C23.3334 7.41607 24.6834 7.53667 26.0154 7.75447V12.1807H23.7402C23.3535 12.13 22.9604 12.1669 22.5899 12.2886C22.2193 12.4104 21.8809 12.6138 21.5996 12.8839C21.3183 13.154 21.1012 13.4838 20.9645 13.8491C20.8278 14.2143 20.7749 14.6056 20.8098 14.9941V18.3745H25.7976L25.0002 23.5783H20.8098V36.1567C24.2075 35.6197 27.3802 34.1204 29.9523 31.8363C32.5244 29.5521 34.3881 26.5788 35.3228 23.2683C36.2575 19.9579 36.224 16.4489 35.2263 13.1569C34.2287 9.86484 32.3086 6.92761 29.6935 4.69293C27.0783 2.45825 23.8776 1.01972 20.4703 0.54764C17.0629 0.0755627 13.5917 0.589713 10.4675 2.02922C7.34325 3.46872 4.69695 5.7733 2.84185 8.67009C0.986749 11.5669 0.000546066 14.9346 0 18.3745Z" fill="#009CDE"/>
</svg>
