<svg width="36" height="37" viewBox="0 0 36 37" fill="none" xmlns="http://www.w3.org/2000/svg">
<path d="M18 0.377319C8.05982 0.377319 0 8.43714 0 18.3773C0 28.3175 8.05982 36.3773 18 36.3773C27.9402 36.3773 36 28.3175 36 18.3773C36 8.43714 27.9402 0.377319 18 0.377319ZM24.7098 25.8345C23.0786 27.3371 20.8527 28.2211 18.1969 28.2211C14.3518 28.2211 11.025 26.0153 9.4058 22.801C8.73884 21.4711 8.35714 19.9684 8.35714 18.3773C8.35714 16.7862 8.73884 15.2836 9.4058 13.9537C11.025 10.7354 14.3518 8.52955 18.1969 8.52955C20.8487 8.52955 23.0746 9.50589 24.7821 11.0929L21.9616 13.9175C20.9411 12.9412 19.6433 12.447 18.2009 12.447C15.6375 12.447 13.4679 14.1787 12.6924 16.505C12.4955 17.0956 12.383 17.7264 12.383 18.3773C12.383 19.0282 12.4955 19.659 12.6924 20.2496C13.4679 22.576 15.6375 24.3077 18.1969 24.3077C19.5228 24.3077 20.6478 23.9581 21.5277 23.3675C22.5723 22.6684 23.2634 21.6278 23.4924 20.3943H18.1969V16.5854H27.4661C27.5826 17.2322 27.6429 17.9032 27.6429 18.5983C27.6429 21.5996 26.5701 24.1188 24.7098 25.8345Z" fill="#009CDE"/>
</svg>
