<svg width="62" height="74" viewBox="0 0 62 74" fill="none" xmlns="http://www.w3.org/2000/svg">
<path d="M13.468 1L13 3.439L10 20.314V31H10.282C10.6975 33.8997 11.7123 36.6811 13.2618 39.1671C14.8113 41.653 16.8616 43.789 19.282 45.439C8.581 50.029 1 60.649 1 73H7C6.99515 69.3993 7.80175 65.8438 9.35988 62.5977C10.918 59.3516 13.1876 56.4984 16 54.25V56.218L16.843 57.157L28.843 69.157L31 71.218L33.157 69.157L45.157 57.157L46 56.218V54.25C48.8124 56.4984 51.082 59.3516 52.6401 62.5977C54.1982 65.8438 55.0049 69.3993 55 73H61C61 60.649 53.419 50.032 42.718 45.436C45.1381 43.7863 47.1881 41.6508 48.7376 39.1654C50.2871 36.68 51.3021 33.8992 51.718 31H52V20.311L49 3.439L48.532 1H13.468ZM18.532 7H43.468L46 21.343V25H16V21.343L18.532 7ZM28 10V13H25V19H28V22H34V19H37V13H34V10H28ZM16.282 31H45.718C45.0253 34.3909 43.1815 37.438 40.4992 39.6249C37.8168 41.8119 34.4609 43.0043 31 43C27.5391 43.0043 24.1832 41.8119 21.5008 39.6249C18.8185 37.438 16.9747 34.3909 16.282 31ZM31 49C34.0803 48.9839 37.1352 49.5572 40 50.689V53.689L31 62.689L22 53.689V50.689C24.8648 49.5572 27.9197 48.9839 31 49Z" fill="#333333" stroke="white" stroke-width="0.8"/>
</svg>
